<!DOCTYPE svg PUBLIC "-//W3C//DTD SVG 1.1//EN" "http://www.w3.org/Graphics/SVG/1.1/DTD/svg11.dtd">
<!-- Uploaded to: SVG Repo, www.svgrepo.com, Transformed by: SVG Repo Mixer Tools -->
<svg width="800px" height="800px" viewBox="0 0 24 24" version="1.1" xml:space="preserve" xmlns="http://www.w3.org/2000/svg" xmlns:xlink="http://www.w3.org/1999/xlink" fill="#1750fd">
<g id="SVGRepo_bgCarrier" stroke-width="0"/>
<g id="SVGRepo_tracerCarrier" stroke-linecap="round" stroke-linejoin="round"/>
<g id="SVGRepo_iconCarrier"> <style type="text/css"> .st0{opacity:0.2;fill:none;stroke:#000000;stroke-width:5.000000e-02;stroke-miterlimit:10;} .st1{fill:none;stroke:#000000;stroke-width:2;stroke-linecap:round;stroke-linejoin:round;stroke-miterlimit:10;} </style> <g id="Layer_1"/> <g id="Layer_2"> <g> <path d="M13.5,6.3C13.5,5.4,12.8,3,12,3s-1.5,2.4-1.5,3.3S11.2,8,12,8S13.5,7.3,13.5,6.3z"/> </g> <g> <path d="M10,13.3c0-0.9-0.7-3.3-1.5-3.3S7,12.4,7,13.3C7,14.3,7.7,15,8.5,15S10,14.3,10,13.3z"/> </g> <g> <path d="M17,13.3c0-0.9-0.7-3.3-1.5-3.3c-0.8,0-1.5,2.4-1.5,3.3c0,0.9,0.7,1.7,1.5,1.7C16.3,15,17,14.3,17,13.3z"/> </g> <g> <path d="M13.5,19.3c0-0.9-0.7-3.3-1.5-3.3s-1.5,2.4-1.5,3.3c0,0.9,0.7,1.7,1.5,1.7S13.5,20.3,13.5,19.3z"/> </g> <g> <path d="M20,6.3C20,5.4,19.3,3,18.5,3S17,5.4,17,6.3S17.7,8,18.5,8S20,7.3,20,6.3z"/> </g> <g> <path d="M7,6.3C7,5.4,6.3,3,5.5,3S4,5.4,4,6.3S4.7,8,5.5,8S7,7.3,7,6.3z"/> </g> </g> </g>
</svg>